<svg width="36" height="36" viewBox="0 0 36 36" fill="none" xmlns="http://www.w3.org/2000/svg">
<path d="M25.7168 3.85706H10.2882C8.86806 3.85706 7.7168 5.00832 7.7168 6.42848V19.2856C7.7168 20.7058 8.86806 21.8571 10.2882 21.8571H25.7168C27.137 21.8571 28.2882 20.7058 28.2882 19.2856V6.42848C28.2882 5.00832 27.137 3.85706 25.7168 3.85706Z" stroke="#9A8873" stroke-width="1.6" stroke-linecap="round" stroke-linejoin="round"/>
<path d="M7.71568 11.5714H3.85854C3.17655 11.5714 2.5225 11.8423 2.04026 12.3246C1.55803 12.8068 1.28711 13.4609 1.28711 14.1428V25.7143C1.28711 26.3963 1.55803 27.0503 2.04026 27.5325C2.5225 28.0148 3.17655 28.2857 3.85854 28.2857H32.1443C32.8262 28.2857 33.4803 28.0148 33.9625 27.5325C34.4448 27.0503 34.7157 26.3963 34.7157 25.7143V14.1428C34.7157 13.4609 34.4448 12.8068 33.9625 12.3246C33.4803 11.8423 32.8262 11.5714 32.1443 11.5714H28.2871" stroke="#9A8873" stroke-width="1.6" stroke-linecap="round" stroke-linejoin="round"/>
<path d="M10.2857 28.2856L9 34.7142" stroke="#9A8873" stroke-width="1.6" stroke-linecap="round" stroke-linejoin="round"/>
<path d="M25.7168 28.2856L27.0025 34.7142" stroke="#9A8873" stroke-width="1.6" stroke-linecap="round" stroke-linejoin="round"/>
</svg>
