<svg width="34" height="36" viewBox="0 0 34 36" fill="none" xmlns="http://www.w3.org/2000/svg">
<path d="M3.14314 10.2858H23.7146C24.0556 10.2858 24.3826 10.4212 24.6237 10.6623C24.8648 10.9035 25.0003 11.2305 25.0003 11.5715V23.1429C25.0003 24.5069 24.4584 25.815 23.494 26.7795C22.5295 27.7439 21.2214 28.2858 19.8574 28.2858H7.00028C5.63631 28.2858 4.3282 27.7439 3.36373 26.7795C2.39926 25.815 1.85742 24.5069 1.85742 23.1429V11.5715C1.85742 11.2305 1.99288 10.9035 2.234 10.6623C2.47512 10.4212 2.80214 10.2858 3.14314 10.2858Z" stroke="#9A8873" stroke-width="1.5" stroke-linecap="round" stroke-linejoin="round"/>
<path d="M25 12.8571H27.5714C28.9354 12.8571 30.2435 13.399 31.208 14.3634C32.1724 15.3279 32.7143 16.636 32.7143 18C32.7143 19.3639 32.1724 20.672 31.208 21.6365C30.2435 22.601 28.9354 23.1428 27.5714 23.1428H25" stroke="#9A8873" stroke-width="1.5" stroke-linecap="round" stroke-linejoin="round"/>
</svg>
