<svg width="22" height="29" viewBox="0 0 22 29" fill="none" xmlns="http://www.w3.org/2000/svg">
<path d="M20.0232 10.3571C20.0232 15.5149 10.5946 27.9642 10.5946 27.9642C10.5946 27.9642 1.16602 15.5149 1.16602 10.3571C1.16602 7.88488 2.15938 5.51393 3.92758 3.76583C5.69578 2.01772 8.09397 1.03564 10.5946 1.03564C13.0952 1.03564 15.4934 2.01772 17.2616 3.76583C19.0298 5.51393 20.0232 7.88488 20.0232 10.3571Z" stroke="#9A8873" stroke-width="1.6" stroke-linecap="round" stroke-linejoin="round"/>
<path d="M10.596 13.4644C12.3317 13.4644 13.7388 12.0733 13.7388 10.3573C13.7388 8.64124 12.3317 7.25012 10.596 7.25012C8.86023 7.25012 7.45312 8.64124 7.45312 10.3573C7.45312 12.0733 8.86023 13.4644 10.596 13.4644Z" stroke="#9A8873" stroke-width="1.6" stroke-linecap="round" stroke-linejoin="round"/>
</svg>
