<svg width="36" height="29" viewBox="0 0 36 29" fill="none" xmlns="http://www.w3.org/2000/svg">
<path d="M32.1443 20C32.8262 20 33.4803 19.729 33.9625 19.2468C34.4448 18.7646 34.7157 18.1105 34.7157 17.4285V12.2857C34.7157 11.6037 34.4448 10.9496 33.9625 10.4674C33.4803 9.98516 32.8262 9.71424 32.1443 9.71424H28.2871L26.3071 3.74853C26.1282 3.21629 25.78 2.75725 25.3157 2.44151C24.8513 2.12577 24.2964 1.97069 23.7357 1.99996H13.4243C12.8635 1.97069 12.3086 2.12577 11.8443 2.44151C11.38 2.75725 11.0317 3.21629 10.8528 3.74853L9.0014 9.71424H3.85854C3.17655 9.71424 2.5225 9.98516 2.04026 10.4674C1.55803 10.9496 1.28711 11.6037 1.28711 12.2857V17.4285C1.28711 18.1105 1.55803 18.7646 2.04026 19.2468C2.5225 19.729 3.17655 20 3.85854 20" stroke="#9A8873" stroke-width="1.6" stroke-linecap="round" stroke-linejoin="round"/>
<path d="M9.00028 25.1428C11.8406 25.1428 14.1431 22.8402 14.1431 19.9999C14.1431 17.1596 11.8406 14.8571 9.00028 14.8571C6.15996 14.8571 3.85742 17.1596 3.85742 19.9999C3.85742 22.8402 6.15996 25.1428 9.00028 25.1428Z" stroke="#9A8873" stroke-width="1.6" stroke-linecap="round" stroke-linejoin="round"/>
<path d="M27.0003 25.1428C29.8406 25.1428 32.1431 22.8402 32.1431 19.9999C32.1431 17.1596 29.8406 14.8571 27.0003 14.8571C24.16 14.8571 21.8574 17.1596 21.8574 19.9999C21.8574 22.8402 24.16 25.1428 27.0003 25.1428Z" stroke="#9A8873" stroke-width="1.6" stroke-linecap="round" stroke-linejoin="round"/>
<path d="M14.1445 20H21.8588" stroke="#9A8873" stroke-width="1.6" stroke-linecap="round" stroke-linejoin="round"/>
</svg>
