<svg width="233" height="28" viewBox="0 0 233 28" fill="none" xmlns="http://www.w3.org/2000/svg">
<path d="M221.522 0.810974H226.356C226.659 0.810974 226.904 1.05697 226.904 1.35797V26.202C226.904 26.507 226.659 26.749 226.356 26.749H221.522C221.222 26.749 220.975 26.507 220.975 26.202V1.35797C220.976 1.05697 221.223 0.810974 221.522 0.810974Z" fill="#58595B"/>
<path d="M6.389 11.152H13.951C14.255 11.152 14.501 11.397 14.501 11.7V15.968C14.501 16.271 14.255 16.517 13.951 16.517H6.389C6.086 16.517 5.934 16.763 5.934 17.067V21.721V26.202C5.934 26.507 5.689 26.749 5.386 26.749H0.549C0.245 26.749 0 26.507 0 26.202V1.35797C0 1.05597 0.245 0.810974 0.549 0.810974H13.951C14.255 0.810974 14.501 1.05697 14.501 1.35797V5.76897C14.501 6.07197 14.255 6.31798 13.951 6.31798H6.484C6.181 6.31798 5.934 6.56297 5.934 6.86697V10.603C5.934 10.905 6.086 11.152 6.389 11.152Z" fill="#58595B"/>
<path d="M181.554 21.172C181.252 21.172 181.007 20.926 181.007 20.623V17.066C181.007 16.762 181.252 16.516 181.554 16.516H189.024C189.326 16.516 189.573 16.27 189.573 15.967V11.7C189.573 11.397 189.326 11.152 189.024 11.152H181.461C181.159 11.152 181.008 10.905 181.008 10.604V6.86901C181.008 6.56401 181.253 6.32001 181.555 6.32001H189.025C189.327 6.32001 189.574 6.07301 189.574 5.77001V1.35901C189.574 1.05701 189.327 0.812012 189.025 0.812012H175.621C175.318 0.812012 175.073 1.05801 175.073 1.35901V26.203C175.073 26.508 175.318 26.75 175.621 26.75H189.025C189.327 26.75 189.574 26.508 189.574 26.203V21.722C189.574 21.42 189.327 21.173 189.025 21.173L181.554 21.172Z" fill="#58595B"/>
<path fill-rule="evenodd" clip-rule="evenodd" d="M15.0918 13.877C15.0918 6.44597 21.1158 0.422974 28.5478 0.422974C35.9788 0.422974 42.0038 6.44497 42.0038 13.877C42.0038 21.307 35.9798 27.33 28.5478 27.33C21.1158 27.33 15.0918 21.308 15.0918 13.877ZM21.2208 13.845C21.2208 9.79697 24.5028 6.51597 28.5498 6.51597C32.5988 6.51597 35.8798 9.79697 35.8798 13.845C35.8798 17.891 32.5988 21.172 28.5498 21.172C24.5028 21.172 21.2208 17.891 21.2208 13.845Z" fill="#58595B"/>
<path fill-rule="evenodd" clip-rule="evenodd" d="M52.0219 6.318C53.3569 6.318 54.4379 7.4 54.4379 8.736C54.4379 10.069 53.3569 11.152 52.0219 11.152H49.0539C48.7499 11.152 48.5059 10.905 48.5059 10.604V6.868C48.5059 6.564 48.7509 6.319 49.0539 6.319L52.0219 6.318ZM48.4909 26.202V17.066C48.4909 16.762 48.7359 16.516 49.0389 16.516H52.7799C57.1199 16.516 60.6389 13.006 60.6389 8.666C60.6389 4.327 57.1199 0.809998 52.7799 0.809998H43.1169C42.8139 0.809998 42.5679 1.056 42.5679 1.357V26.201C42.5679 26.506 42.8139 26.748 43.1169 26.748H47.9549C48.2579 26.749 48.4909 26.507 48.4909 26.202Z" fill="#58595B"/>
<path fill-rule="evenodd" clip-rule="evenodd" d="M70.851 6.318C72.187 6.318 73.27 7.4 73.27 8.736C73.27 10.069 72.187 11.152 70.851 11.152H67.885C67.581 11.152 67.336 10.905 67.336 10.604V6.868C67.336 6.564 67.581 6.319 67.885 6.319L70.851 6.318ZM67.321 26.202V17.066C67.321 16.762 67.566 16.516 67.868 16.516H71.609C75.95 16.516 79.468 13.006 79.468 8.666C79.468 4.327 75.949 0.809998 71.609 0.809998H61.945C61.644 0.809998 61.397 1.056 61.397 1.357V26.201C61.397 26.506 61.644 26.748 61.945 26.748H66.784C67.088 26.749 67.321 26.507 67.321 26.202Z" fill="#58595B"/>
<path fill-rule="evenodd" clip-rule="evenodd" d="M107.579 6.318C108.915 6.318 109.996 7.4 109.996 8.736C109.996 10.069 108.915 11.152 107.579 11.152H104.611C104.308 11.152 104.062 10.905 104.062 10.604V6.868C104.062 6.564 104.308 6.319 104.611 6.319L107.579 6.318ZM104.047 26.202V17.066C104.047 16.762 104.294 16.516 104.597 16.516H108.337C112.677 16.516 116.196 13.006 116.196 8.666C116.196 4.327 112.676 0.809998 108.337 0.809998H98.674C98.372 0.809998 98.125 1.056 98.125 1.357V26.201C98.125 26.506 98.372 26.748 98.674 26.748H103.513C103.814 26.749 104.047 26.507 104.047 26.202Z" fill="#58595B"/>
<path d="M123.295 21.172C122.991 21.172 122.745 20.926 122.745 20.623V17.066C122.745 16.762 122.991 16.516 123.295 16.516H130.763C131.066 16.516 131.312 16.27 131.312 15.967V11.7C131.312 11.397 131.066 11.152 130.763 11.152H123.201C122.897 11.152 122.745 10.905 122.745 10.604V6.86901C122.745 6.56401 122.991 6.32001 123.295 6.32001H130.763C131.066 6.32001 131.312 6.07301 131.312 5.77001V1.35901C131.312 1.05701 131.066 0.812012 130.763 0.812012H117.36C117.055 0.812012 116.809 1.05801 116.809 1.35901V26.203C116.809 26.508 117.055 26.75 117.36 26.75H130.762C131.065 26.75 131.311 26.508 131.311 26.203V21.722C131.311 21.42 131.065 21.173 130.762 21.173L123.295 21.172Z" fill="#58595B"/>
<path fill-rule="evenodd" clip-rule="evenodd" d="M140.7 21.172H139.045C138.743 21.172 138.496 20.925 138.496 20.623V6.86697C138.496 6.56297 138.743 6.31798 139.045 6.31798H140.7C144.801 6.31798 148.127 9.64398 148.127 13.745C148.127 17.847 144.801 21.172 140.7 21.172ZM141.688 26.749H133.138C132.836 26.749 132.589 26.507 132.589 26.202V1.35797C132.589 1.05597 132.836 0.810974 133.138 0.810974H141.688C148.825 0.810974 154.56 6.70097 154.56 13.835C154.561 20.968 148.825 26.749 141.688 26.749Z" fill="#58595B"/>
<path fill-rule="evenodd" clip-rule="evenodd" d="M164.507 6.31804C165.841 6.31804 166.921 7.40004 166.921 8.73604C166.921 10.069 165.841 11.152 164.507 11.152H161.538C161.235 11.152 160.99 10.905 160.99 10.604V6.86804C160.99 6.56404 161.235 6.31904 161.538 6.31904L164.507 6.31804ZM160.988 26.202C160.988 26.507 160.741 26.749 160.437 26.749H155.6C155.298 26.749 155.051 26.507 155.051 26.202V1.35804C155.051 1.05604 155.298 0.811035 155.6 0.811035H165.263C169.605 0.811035 173.122 4.32803 173.122 8.66704C173.122 12.25 170.726 15.271 167.447 16.216C167.447 16.216 167.224 16.308 167.213 16.601C167.202 16.864 167.459 17.067 167.459 17.067L174.409 26.203C174.409 26.508 174.164 26.75 173.86 26.75H167.878C167.574 26.75 167.213 26.469 167.102 26.203L161.123 17.301C161.123 17.301 161.083 17.136 161.015 17.155C160.95 17.175 160.982 17.327 160.982 17.327L160.988 26.202Z" fill="#58595B"/>
<path d="M194.704 6.86697C194.704 6.56297 194.459 6.31798 194.157 6.31798H190.971C190.666 6.31798 190.421 6.07197 190.421 5.76797V1.35797C190.421 1.05597 190.666 0.810974 190.971 0.810974H204.379C204.682 0.810974 204.927 1.05697 204.927 1.35797V5.76797C204.927 6.07197 204.682 6.31798 204.379 6.31798H201.178C200.878 6.31798 200.636 6.51297 200.636 6.81597V26.202C200.636 26.507 200.388 26.749 200.086 26.749H195.255C194.951 26.749 194.705 26.507 194.705 26.202L194.704 6.86697Z" fill="#58595B"/>
<path d="M209.982 6.86704C209.982 6.56304 209.735 6.31804 209.431 6.31804H206.247C205.945 6.31804 205.698 6.07203 205.698 5.76803V1.35804C205.698 1.05604 205.945 0.811035 206.247 0.811035H219.654C219.959 0.811035 220.203 1.05704 220.203 1.35804V5.76803C220.203 6.07203 219.959 6.31804 219.654 6.31804H216.455C216.153 6.31804 215.912 6.51304 215.912 6.81604V26.202C215.912 26.507 215.666 26.749 215.362 26.749H210.532C210.228 26.749 209.982 26.507 209.982 26.202V6.86704Z" fill="#58595B"/>
<path fill-rule="evenodd" clip-rule="evenodd" d="M89.283 7.28797C89.502 7.21497 89.719 7.23897 89.719 7.54197V15.651C89.719 15.954 89.473 16.2 89.17 16.2H83.781C83.454 16.009 83.514 16.166 83.502 15.716L89.283 7.28797ZM89.722 22.26V26.202C89.722 26.507 89.968 26.749 90.271 26.749H95.104C95.405 26.749 95.652 26.507 95.652 26.202V1.35797C95.652 1.05597 95.405 0.810974 95.104 0.810974H87.748C87.445 0.810974 87.229 1.03597 87.022 1.35797L69.938 26.202C69.938 26.507 70.184 26.749 70.487 26.749H75.744C76.11 26.588 76.122 26.506 76.34 26.213L79.037 22.259C79.244 21.944 79.447 21.716 79.751 21.716H89.172C89.417 21.716 89.651 22.04 89.722 22.26Z" fill="#58595B"/>
<path d="M230.511 5.30698C229.167 5.30698 228.074 4.21398 228.074 2.87098C228.074 1.52698 229.167 0.432983 230.511 0.432983C231.856 0.432983 232.949 1.52698 232.949 2.87098C232.949 4.21398 231.855 5.30698 230.511 5.30698ZM230.511 0.819983C229.382 0.819983 228.462 1.73898 228.462 2.86998C228.462 3.99898 229.382 4.91798 230.511 4.91798C231.642 4.91798 232.562 3.99998 232.562 2.86998C232.562 1.73998 231.642 0.819983 230.511 0.819983Z" fill="#58595B"/>
<path fill-rule="evenodd" clip-rule="evenodd" d="M229.868 2.99598H230.726C231.15 2.99598 231.193 3.24798 231.193 3.46398C231.193 3.56298 231.204 3.95998 231.256 4.12098H231.69V4.06198C231.58 3.99998 231.561 3.94398 231.558 3.79798L231.537 3.32398C231.521 2.95898 231.373 2.89298 231.224 2.83098C231.392 2.73298 231.588 2.59098 231.588 2.20398C231.588 1.64798 231.157 1.50098 230.727 1.50098H229.516V4.11998H229.869V2.99598M229.868 1.80398H230.752C230.927 1.80398 231.224 1.83698 231.224 2.24198C231.224 2.62798 230.952 2.69498 230.692 2.69498H229.869V1.80398H229.868Z" fill="#58595B"/>
</svg>
