<svg width="82" height="42" viewBox="0 0 82 42" fill="none" xmlns="http://www.w3.org/2000/svg">
<path fill-rule="evenodd" clip-rule="evenodd" d="M82 0H0V21H11.2912V8.25489H13.5352V21H23.9084C23.8669 20.9743 23.8256 20.948 23.7844 20.9211C22.9034 20.3393 22.2178 19.529 21.7274 18.4901C21.2453 17.4429 21.0043 16.2419 21.0043 14.8872C21.0043 13.5657 21.2246 12.3689 21.6651 11.2968C22.1056 10.2163 22.7663 9.38936 23.6473 8.81589C24.5283 8.24242 25.5131 7.95569 26.6019 7.95569C27.3998 7.95569 28.1104 8.12607 28.7337 8.46682C29.357 8.79927 29.864 9.23561 30.2547 9.77583V3.21832H32.4862V21H43.0943C42.6272 20.7361 42.2041 20.4065 41.8253 20.011C40.695 18.8142 40.1298 17.1395 40.1298 14.9869C40.1298 12.7595 40.7033 11.0308 41.8502 9.80077C42.9972 8.57071 44.4849 7.95569 46.3133 7.95569C48.0836 7.95569 49.5298 8.55825 50.6518 9.76337C51.7738 10.9685 52.3348 12.664 52.3348 14.8498C52.3348 14.9828 52.3306 15.1823 52.3223 15.4482H42.4486C42.5317 16.9027 42.9431 18.0164 43.6828 18.7893C44.4225 19.5622 45.3451 19.9487 46.4505 19.9487C47.2733 19.9487 47.9756 19.7326 48.5573 19.3004C49.1391 18.8683 49.6004 18.1784 49.9412 17.231L52.26 17.5177C51.8943 18.8724 51.2169 19.9238 50.2279 20.6718C50.0707 20.7906 49.9067 20.9 49.7357 21H62.1575C61.6903 20.7361 61.2673 20.4065 60.8885 20.011C59.7581 18.8142 59.193 17.1395 59.193 14.9869C59.193 12.7595 59.7665 11.0308 60.9134 9.80077C62.0603 8.57071 63.548 7.95569 65.3765 7.95569C67.1468 7.95569 68.5929 8.55825 69.7149 9.76337C70.8369 10.9685 71.3979 12.664 71.3979 14.8498C71.3979 14.9828 71.3938 15.1823 71.3855 15.4482H61.5118C61.5949 16.9027 62.0063 18.0164 62.746 18.7893C63.4857 19.5622 64.4082 19.9487 65.5136 19.9487C66.3364 19.9487 67.0387 19.7326 67.6205 19.3004C68.2023 18.8683 68.6636 18.1784 69.0043 17.231L71.3231 17.5177C70.9574 18.8724 70.2801 19.9238 69.2911 20.6718C69.1339 20.7906 68.9698 20.9 68.7988 21H82V0ZM30.4043 21V19.824C30.0977 20.3036 29.7385 20.6956 29.3267 21H30.4043ZM11.2912 3.21832V5.79894H13.5352V3.21832H11.2912ZM24.3828 18.6896C23.6681 17.8501 23.3107 16.5827 23.3107 14.8872C23.3107 13.1335 23.6431 11.8495 24.308 11.035C24.9812 10.2205 25.8165 9.81323 26.8138 9.81323C27.8361 9.81323 28.6963 10.2371 29.3944 11.0848C30.0926 11.9326 30.4417 13.2624 30.4417 15.0742C30.4417 16.7198 30.0967 17.9457 29.4069 18.7519C28.7254 19.5498 27.8943 19.9487 26.9136 19.9487C25.9412 19.9487 25.0976 19.529 24.3828 18.6896ZM49.9661 13.6031H42.5733C42.6481 12.4479 43.0346 11.5253 43.7327 10.8355C44.4392 10.1457 45.3077 9.80077 46.3383 9.80077C47.4769 9.80077 48.4036 10.2329 49.1183 11.0973C49.5838 11.6542 49.8664 12.4894 49.9661 13.6031ZM69.0293 13.6031H61.6365C61.7113 12.4479 62.0977 11.5253 62.7959 10.8355C63.5023 10.1457 64.3708 9.80077 65.4014 9.80077C66.5401 9.80077 67.4668 10.2329 68.1815 11.0973C68.6469 11.6542 68.9295 12.4894 69.0293 13.6031Z" fill="white"/>
<path d="M15.6851 36.2553C14.7149 36.2553 13.8213 36.0766 13.0043 35.7191C12.2043 35.3447 11.4979 34.834 10.8851 34.1872C10.2894 33.5404 9.82128 32.8 9.48085 31.966C9.15745 31.1319 8.99574 30.2468 8.99574 29.3106C8.99574 28.0511 9.2766 26.9021 9.8383 25.8638C10.4 24.8255 11.183 24 12.1872 23.3872C13.1915 22.7745 14.3489 22.4681 15.6596 22.4681C16.9021 22.4681 18 22.7574 18.9532 23.3362C19.9064 23.8979 20.6128 24.6638 21.0723 25.634L19.3872 26.1702C19.0128 25.4894 18.4851 24.9617 17.8043 24.5872C17.1404 24.1957 16.4 24 15.583 24C14.6979 24 13.8894 24.2298 13.1574 24.6894C12.4255 25.1489 11.8383 25.7787 11.3957 26.5787C10.9702 27.3787 10.7574 28.2894 10.7574 29.3106C10.7574 30.3149 10.9787 31.2255 11.4213 32.0426C11.8638 32.8596 12.4511 33.5149 13.183 34.0085C13.9149 34.4851 14.7234 34.7234 15.6085 34.7234C16.1872 34.7234 16.7404 34.6213 17.2681 34.417C17.8128 34.2128 18.2809 33.9404 18.6723 33.6C19.0809 33.2426 19.3532 32.8596 19.4894 32.4511L21.2 32.9617C20.9617 33.5915 20.5617 34.1617 20 34.6723C19.4553 35.166 18.8085 35.5574 18.0596 35.8468C17.3277 36.1191 16.5362 36.2553 15.6851 36.2553ZM25.1531 32.1702C25.1531 31.3362 25.3914 30.6213 25.868 30.0255C26.3445 29.4128 26.9999 28.9447 27.8339 28.6213C28.685 28.2809 29.6637 28.1106 30.7701 28.1106C31.4169 28.1106 32.0892 28.1617 32.7871 28.2638C33.485 28.366 34.1062 28.5191 34.6509 28.7234V27.6C34.6509 26.4766 34.319 25.583 33.6552 24.9191C32.9914 24.2553 32.0722 23.9234 30.8977 23.9234C30.1828 23.9234 29.4765 24.0596 28.7786 24.3319C28.0977 24.5872 27.3828 24.9702 26.6339 25.4809L25.9701 24.2553C26.8382 23.6596 27.6892 23.217 28.5233 22.9277C29.3573 22.6213 30.2084 22.4681 31.0765 22.4681C32.7105 22.4681 34.0041 22.9362 34.9573 23.8723C35.9105 24.8085 36.3871 26.1021 36.3871 27.7532V33.9064C36.3871 34.1447 36.4382 34.3234 36.5403 34.4426C36.6424 34.5447 36.8041 34.6043 37.0254 34.6213V36C36.8382 36.017 36.6765 36.034 36.5403 36.0511C36.4041 36.0681 36.302 36.0681 36.2339 36.0511C35.8084 36.034 35.485 35.8979 35.2637 35.6426C35.0424 35.3872 34.9233 35.1149 34.9062 34.8255L34.8807 33.8553C34.285 34.6213 33.5105 35.217 32.5573 35.6426C31.6041 36.0511 30.6339 36.2553 29.6467 36.2553C28.7956 36.2553 28.0211 36.0766 27.3233 35.7191C26.6424 35.3447 26.1062 34.8511 25.7148 34.2383C25.3403 33.6085 25.1531 32.9191 25.1531 32.1702ZM34.0637 33.1915C34.2509 32.9532 34.3956 32.7234 34.4977 32.5021C34.5999 32.2809 34.6509 32.0851 34.6509 31.9149V29.9745C34.0722 29.7532 33.468 29.583 32.8382 29.4638C32.2254 29.3447 31.6041 29.2851 30.9743 29.2851C29.7318 29.2851 28.7275 29.5319 27.9616 30.0255C27.1956 30.5191 26.8126 31.1915 26.8126 32.0426C26.8126 32.5362 26.9403 33.0043 27.1956 33.4468C27.4509 33.8723 27.8254 34.2298 28.319 34.5191C28.8126 34.7915 29.3914 34.9277 30.0552 34.9277C30.8892 34.9277 31.6637 34.766 32.3786 34.4426C33.1105 34.1191 33.6722 33.7021 34.0637 33.1915ZM46.8021 36.2553C45.7128 36.2553 44.7 36.0766 43.7638 35.7191C42.8277 35.3617 42.0191 34.817 41.3383 34.0851L42.0532 32.8596C42.8021 33.5574 43.5511 34.0681 44.3 34.3915C45.066 34.6979 45.8745 34.8511 46.7255 34.8511C47.7638 34.8511 48.6064 34.6468 49.2532 34.2383C49.9 33.8128 50.2234 33.2085 50.2234 32.4255C50.2234 31.8979 50.0617 31.4979 49.7383 31.2255C49.4319 30.9362 48.9808 30.7064 48.3851 30.5362C47.8064 30.3489 47.1085 30.1532 46.2915 29.9489C45.3723 29.6936 44.5979 29.4298 43.9681 29.1574C43.3553 28.8681 42.8872 28.5106 42.5638 28.0851C42.2574 27.6426 42.1043 27.0723 42.1043 26.3745C42.1043 25.5064 42.317 24.7915 42.7426 24.2298C43.1851 23.6511 43.7808 23.217 44.5298 22.9277C45.2957 22.6213 46.1468 22.4681 47.083 22.4681C48.1043 22.4681 49.0064 22.6298 49.7894 22.9532C50.5723 23.2766 51.2106 23.7277 51.7043 24.3064L50.8617 25.4809C50.3851 24.9362 49.8149 24.5362 49.1511 24.2809C48.5043 24.0085 47.7808 23.8723 46.9808 23.8723C46.4362 23.8723 45.917 23.9489 45.4234 24.1021C44.9298 24.2383 44.5213 24.4766 44.1979 24.817C43.8915 25.1404 43.7383 25.5915 43.7383 26.1702C43.7383 26.6468 43.8574 27.0213 44.0957 27.2936C44.334 27.5489 44.6915 27.7702 45.1681 27.9574C45.6447 28.1277 46.2319 28.3149 46.9298 28.5191C47.934 28.7915 48.8106 29.0723 49.5596 29.3617C50.3085 29.634 50.8872 29.9915 51.2957 30.434C51.7043 30.8766 51.9085 31.4979 51.9085 32.2979C51.9085 33.5404 51.4404 34.5106 50.5043 35.2085C49.5681 35.9064 48.334 36.2553 46.8021 36.2553ZM56.0038 32.1702C56.0038 31.3362 56.2421 30.6213 56.7187 30.0255C57.1953 29.4128 57.8506 28.9447 58.6846 28.6213C59.5357 28.2809 60.5144 28.1106 61.6208 28.1106C62.2676 28.1106 62.94 28.1617 63.6378 28.2638C64.3357 28.366 64.957 28.5191 65.5017 28.7234V27.6C65.5017 26.4766 65.1697 25.583 64.5059 24.9191C63.8421 24.2553 62.9229 23.9234 61.7485 23.9234C61.0336 23.9234 60.3272 24.0596 59.6293 24.3319C58.9485 24.5872 58.2336 24.9702 57.4846 25.4809L56.8208 24.2553C57.6889 23.6596 58.54 23.217 59.374 22.9277C60.208 22.6213 61.0591 22.4681 61.9272 22.4681C63.5612 22.4681 64.8549 22.9362 65.808 23.8723C66.7612 24.8085 67.2378 26.1021 67.2378 27.7532V33.9064C67.2378 34.1447 67.2889 34.3234 67.391 34.4426C67.4932 34.5447 67.6549 34.6043 67.8761 34.6213V36C67.6889 36.017 67.5272 36.034 67.391 36.0511C67.2549 36.0681 67.1527 36.0681 67.0846 36.0511C66.6591 36.034 66.3357 35.8979 66.1144 35.6426C65.8932 35.3872 65.774 35.1149 65.757 34.8255L65.7314 33.8553C65.1357 34.6213 64.3612 35.217 63.408 35.6426C62.4549 36.0511 61.4846 36.2553 60.4974 36.2553C59.6463 36.2553 58.8719 36.0766 58.174 35.7191C57.4932 35.3447 56.957 34.8511 56.5655 34.2383C56.191 33.6085 56.0038 32.9191 56.0038 32.1702ZM64.9144 33.1915C65.1017 32.9532 65.2463 32.7234 65.3485 32.5021C65.4506 32.2809 65.5017 32.0851 65.5017 31.9149V29.9745C64.9229 29.7532 64.3187 29.583 63.6889 29.4638C63.0761 29.3447 62.4549 29.2851 61.8251 29.2851C60.5825 29.2851 59.5783 29.5319 58.8123 30.0255C58.0463 30.5191 57.6634 31.1915 57.6634 32.0426C57.6634 32.5362 57.791 33.0043 58.0463 33.4468C58.3017 33.8723 58.6761 34.2298 59.1697 34.5191C59.6634 34.7915 60.2421 34.9277 60.9059 34.9277C61.74 34.9277 62.5144 34.766 63.2293 34.4426C63.9612 34.1191 64.5229 33.7021 64.9144 33.1915Z" fill="white"/>
</svg>
