<svg width="83" height="53" viewBox="0 0 83 53" fill="none" xmlns="http://www.w3.org/2000/svg">
<path d="M8.544 25.544C8.32 25.448 8.16 25.32 8.096 25.192C8.032 25.064 8 24.904 8 24.744C8 24.488 8.064 24.168 8.064 23.848C8.096 23.656 8.224 23.592 8.416 23.592C8.704 23.592 9.088 23.816 9.248 24.072C9.28 24.136 9.312 24.2 9.312 24.264V24.328C9.28 24.904 9.344 25.608 8.864 25.608C8.768 25.608 8.672 25.608 8.544 25.544ZM14.336 27.848C13.12 29.672 11.84 30.344 10.72 30.344C9.568 30.344 8.608 29.64 8.128 28.776C7.904 28.392 7.776 27.944 7.776 27.56C7.776 27.336 7.84 27.112 7.904 26.92C7.968 26.792 8.064 26.728 8.224 26.728C8.512 26.728 8.928 26.952 9.056 27.208C9.088 27.272 9.12 27.336 9.12 27.4C9.12 27.464 9.12 27.496 9.088 27.528C9.056 27.656 9.024 27.816 9.024 27.976C9.024 28.232 9.088 28.488 9.216 28.744C9.44 29.096 9.76 29.352 10.24 29.352C10.592 29.352 11.04 29.192 11.584 28.808C12.8 27.912 13.024 26.984 13.536 26.984C13.664 26.984 13.792 27.048 13.984 27.144C14.144 27.24 14.272 27.368 14.336 27.496C14.368 27.56 14.4 27.624 14.4 27.688C14.4 27.752 14.368 27.784 14.336 27.848ZM20.287 27.432C20.159 27.336 20.063 27.304 19.935 27.304C18.719 27.304 16.831 30.888 14.911 30.888C14.335 30.888 13.695 30.504 13.439 29.992C13.215 29.608 13.119 29.128 13.119 28.648C13.119 27.976 13.311 27.336 13.599 26.952C13.663 26.856 13.759 26.824 13.855 26.824C14.175 26.824 14.591 27.08 14.719 27.336C14.751 27.4 14.783 27.464 14.783 27.528C14.783 27.592 14.751 27.656 14.719 27.688C14.495 28.04 14.367 28.488 14.367 28.968C14.367 29.256 14.431 29.576 14.527 29.864C15.999 29.608 17.471 26.28 19.455 26.28C19.935 26.28 20.415 26.472 20.927 26.888C21.983 27.752 22.655 29.32 24.063 29.352H24.095C25.119 29.352 26.111 27.848 26.559 27.112C26.623 27.016 26.719 26.984 26.847 26.984C27.135 26.984 27.519 27.176 27.679 27.432C27.711 27.496 27.743 27.592 27.743 27.688C27.743 27.784 27.711 27.88 27.647 27.976C27.135 28.776 26.047 30.344 24.607 30.344H24.575C22.143 30.28 21.151 28.136 20.287 27.432ZM21.9895 21.352C21.3175 21.064 20.6455 20.808 20.4855 20.488L20.4535 20.424C20.4215 20.328 20.3895 20.264 20.3895 20.232C20.3895 20.104 20.5175 20.04 20.7735 20.04C23.8775 19.976 27.0135 19.944 30.1175 19.88C30.7895 17.8 31.3015 15.784 31.6215 14.312C31.8775 13.128 32.1655 12.584 32.5495 12.584C32.6455 12.584 32.7415 12.616 32.8375 12.648C33.0615 12.776 33.1575 12.872 33.2535 13C33.2855 13.064 33.2855 13.128 33.2855 13.192C33.2855 13.32 33.2535 13.416 33.2215 13.448C33.2535 13.608 33.2535 13.8 33.2535 14.024C33.2535 14.536 33.1895 15.208 33.1255 15.944L32.8375 19.848L50.8535 19.624H50.8855C51.1735 19.624 51.3975 19.816 51.5255 20.008C51.5575 20.072 51.5895 20.168 51.5895 20.232C51.5895 20.328 51.5255 20.424 51.3335 20.424L32.8055 20.648C32.6135 23.176 32.3255 26.056 32.3255 28.232C32.3255 29.224 32.3895 30.088 32.5495 30.696C32.6135 30.92 32.7095 31.24 32.8055 31.464C32.9015 31.592 32.9655 31.688 33.0935 31.688C34.8535 31.688 37.4455 28.424 38.2775 27.112C38.3415 27.016 38.4375 26.984 38.5655 26.984C38.8535 26.984 39.2375 27.176 39.3975 27.464C39.4615 27.528 39.4935 27.624 39.4935 27.72C39.4935 27.816 39.4615 27.88 39.4295 27.944C38.9175 28.744 36.0055 32.712 33.6055 32.712C32.9975 32.712 32.4215 32.456 31.9095 31.784C31.8135 31.688 31.7815 31.592 31.6855 31.464C31.1735 30.504 31.0455 29.096 31.0455 27.752C31.0455 27.336 31.0775 26.92 31.0775 26.536L31.4935 20.68H31.3015C30.5015 23.176 29.4135 25.832 28.0375 27.848C27.9735 27.944 27.8455 27.976 27.7175 27.976C27.4295 27.976 27.0135 27.752 26.8535 27.464C26.8215 27.4 26.8215 27.336 26.8215 27.272C26.8215 27.208 26.8215 27.144 26.8535 27.112C28.1015 25.32 29.0935 22.952 29.8935 20.712L22.3095 20.808C22.4055 20.872 22.4695 20.968 22.5015 21.032C22.5335 21.096 22.5655 21.16 22.5655 21.224C22.5655 21.352 22.4695 21.416 22.2775 21.416C22.2135 21.416 22.1175 21.416 21.9895 21.352ZM48.6925 28.52C48.0205 29.256 45.1725 31.08 42.5165 31.08C41.0765 31.08 39.6045 30.44 38.8685 29.128C38.6445 28.712 38.5165 28.264 38.5165 27.816C38.5165 26.6 39.4765 25.48 41.5565 25.448H41.6525C43.0925 25.448 44.1165 26.088 44.5005 26.824C44.6285 27.048 44.6925 27.272 44.6925 27.464C44.6925 28.2 43.9885 28.84 42.4205 28.84C41.5565 28.84 40.6605 28.648 39.7645 28.232V28.328C39.7645 28.584 39.8605 28.84 39.9885 29.096C40.2445 29.608 40.8205 30.056 41.7805 30.088H41.9085C44.1485 30.088 46.9645 28.52 47.7965 27.432C47.8925 27.272 48.0525 26.984 48.3725 26.984C48.6605 26.984 49.0125 27.208 49.1725 27.432C49.2045 27.496 49.2365 27.592 49.2365 27.656C49.2365 27.976 48.8845 28.296 48.6925 28.52ZM43.2845 26.76C43.1565 26.536 42.8045 26.44 42.3565 26.44C41.5565 26.44 40.5005 26.76 40.0205 27.432C40.6925 27.752 41.3645 27.88 41.9085 27.88C42.8045 27.88 43.3805 27.528 43.3805 27.08C43.3805 26.984 43.3485 26.888 43.2845 26.76ZM51.1212 27.944C50.1612 27.912 48.8492 27.752 48.3052 26.728L48.1772 26.536C48.1132 26.408 48.1132 26.248 48.1132 26.088C48.1132 25.992 48.1132 25.832 48.1452 25.704C48.1772 25.544 48.3052 25.48 48.4652 25.48C48.7532 25.48 49.1692 25.704 49.2972 25.96C49.3292 26.024 49.3612 26.088 49.3612 26.184V26.248C49.3612 26.312 49.3292 26.408 49.3292 26.472C49.3292 26.568 49.3612 26.632 49.3932 26.696C49.4572 26.792 49.5852 26.856 49.8412 26.888C50.1292 26.92 50.3532 26.92 50.5452 26.92C51.0572 26.92 51.3772 26.856 51.6012 26.856C51.8252 26.856 51.9852 26.92 52.2732 27.272C52.3372 27.336 52.3692 27.4 52.4012 27.464C52.4332 27.528 52.4332 27.56 52.4332 27.592C52.4332 27.688 52.3052 27.752 52.3052 27.976C52.3052 28.136 52.3692 28.36 52.5612 28.776C52.7852 29.192 53.1372 29.352 53.5212 29.352C54.0332 29.352 54.6092 29.032 54.8972 28.808C56.1132 27.912 56.3372 26.984 56.8812 26.984C57.0092 26.984 57.1372 27.048 57.3292 27.144C57.4892 27.24 57.5852 27.368 57.6492 27.496C57.6812 27.56 57.7132 27.656 57.7132 27.72C57.7132 27.784 57.7132 27.816 57.6812 27.848C57.1692 28.552 55.8252 30.344 54.0652 30.344C52.9452 30.344 51.9532 29.672 51.4092 28.712C51.2812 28.456 51.1852 28.168 51.1212 27.944ZM57.5815 25.544C57.3575 25.448 57.1975 25.32 57.1335 25.192C57.0695 25.064 57.0375 24.904 57.0375 24.744C57.0375 24.488 57.1015 24.168 57.1015 23.848C57.1335 23.656 57.2615 23.592 57.4535 23.592C57.7415 23.592 58.1255 23.816 58.2855 24.072C58.3175 24.136 58.3495 24.2 58.3495 24.264V24.328C58.3175 24.904 58.3815 25.608 57.9015 25.608C57.8055 25.608 57.7095 25.608 57.5815 25.544ZM63.3735 27.848C62.1575 29.672 60.8775 30.344 59.7575 30.344C58.6055 30.344 57.6455 29.64 57.1655 28.776C56.9415 28.392 56.8135 27.944 56.8135 27.56C56.8135 27.336 56.8775 27.112 56.9415 26.92C57.0055 26.792 57.1015 26.728 57.2615 26.728C57.5495 26.728 57.9655 26.952 58.0935 27.208C58.1255 27.272 58.1575 27.336 58.1575 27.4C58.1575 27.464 58.1575 27.496 58.1255 27.528C58.0935 27.656 58.0615 27.816 58.0615 27.976C58.0615 28.232 58.1255 28.488 58.2535 28.744C58.4775 29.096 58.7975 29.352 59.2775 29.352C59.6295 29.352 60.0775 29.192 60.6215 28.808C61.8375 27.912 62.0615 26.984 62.5735 26.984C62.7015 26.984 62.8295 27.048 63.0215 27.144C63.1815 27.24 63.3095 27.368 63.3735 27.496C63.4055 27.56 63.4375 27.624 63.4375 27.688C63.4375 27.752 63.4055 27.784 63.3735 27.848ZM63.6925 27.848C63.6285 27.944 63.5005 27.976 63.3725 27.976C63.0845 27.976 62.7005 27.752 62.5725 27.496C62.5405 27.432 62.5085 27.336 62.5085 27.272C62.5085 27.208 62.5085 27.176 62.5405 27.112C62.9885 26.504 63.7885 26.152 64.4605 26.152C64.9405 26.152 65.3245 26.312 65.5805 26.664C65.7405 25.992 66.2205 25.704 66.8605 25.704C67.8525 25.704 69.1645 26.472 69.7405 27.528C69.9005 27.784 69.9645 28.04 70.0285 28.328H70.0925C72.5885 28.328 72.6205 26.984 73.2285 26.984C73.4845 26.984 73.9005 27.272 74.0285 27.496C74.0605 27.56 74.0925 27.656 74.0925 27.752C74.0925 27.784 74.0925 27.848 74.0605 27.88C73.1965 28.936 72.2365 29.352 70.6365 29.352C70.4125 29.352 70.1565 29.32 69.9325 29.32C69.6125 30.12 68.6525 30.6 67.5645 30.6C66.5085 30.6 65.3245 30.12 64.5885 28.968L64.5245 28.84C64.3325 28.488 64.2045 28.104 64.2045 27.784C64.2045 27.624 64.2365 27.496 64.2685 27.368C64.0765 27.464 63.8845 27.624 63.6925 27.848ZM66.7965 27.176C66.7965 27.304 66.7965 27.432 66.8285 27.528C67.0845 27.976 68.1085 28.168 68.8125 28.232C68.7165 27.528 68.2045 26.728 67.4045 26.728C67.1485 26.728 66.9245 26.856 66.7965 27.176ZM65.7405 27.592L65.6445 27.464C65.5485 27.784 65.4845 28.04 65.4845 28.264C65.4845 28.52 65.5485 28.712 65.6445 28.904C65.9325 29.384 66.4765 29.608 67.0205 29.608C67.5325 29.608 68.0445 29.416 68.4285 29.096C67.4045 28.872 66.1885 28.424 65.7405 27.592ZM76.05 27.944C75.09 27.912 73.778 27.752 73.234 26.728L73.106 26.536C73.042 26.408 73.042 26.248 73.042 26.088C73.042 25.992 73.042 25.832 73.074 25.704C73.106 25.544 73.234 25.48 73.394 25.48C73.682 25.48 74.098 25.704 74.226 25.96C74.258 26.024 74.29 26.088 74.29 26.184V26.248C74.29 26.312 74.258 26.408 74.258 26.472C74.258 26.568 74.29 26.632 74.322 26.696C74.386 26.792 74.514 26.856 74.77 26.888C75.058 26.92 75.282 26.92 75.474 26.92C75.986 26.92 76.306 26.856 76.53 26.856C76.754 26.856 76.914 26.92 77.202 27.272C77.266 27.336 77.298 27.4 77.33 27.464C77.362 27.528 77.362 27.56 77.362 27.592C77.362 27.688 77.234 27.752 77.234 27.976C77.234 28.136 77.298 28.36 77.49 28.776C77.714 29.192 78.066 29.352 78.45 29.352C78.962 29.352 79.538 29.032 79.826 28.808C81.042 27.912 81.266 26.984 81.81 26.984C81.938 26.984 82.066 27.048 82.258 27.144C82.418 27.24 82.514 27.368 82.578 27.496C82.61 27.56 82.642 27.656 82.642 27.72C82.642 27.784 82.642 27.816 82.61 27.848C82.098 28.552 80.754 30.344 78.994 30.344C77.874 30.344 76.882 29.672 76.338 28.712C76.21 28.456 76.114 28.168 76.05 27.944Z" fill="#070605"/>
<path d="M25.712 40V34.32H26.272V40H25.712ZM27.6964 40V34.32H29.6244C30.227 34.32 30.7284 34.448 31.1284 34.704C31.5337 34.9547 31.8377 35.296 32.0404 35.728C32.243 36.1547 32.3444 36.6293 32.3444 37.152C32.3444 37.728 32.2324 38.2293 32.0084 38.656C31.7897 39.0827 31.475 39.4133 31.0644 39.648C30.659 39.8827 30.179 40 29.6244 40H27.6964ZM31.7844 37.152C31.7844 36.6987 31.699 36.296 31.5284 35.944C31.363 35.592 31.1204 35.3173 30.8004 35.12C30.4804 34.9173 30.0884 34.816 29.6244 34.816H28.2564V39.504H29.6244C30.0937 39.504 30.4884 39.4 30.8084 39.192C31.1284 38.984 31.371 38.704 31.5364 38.352C31.7017 37.9947 31.7844 37.5947 31.7844 37.152ZM37.2311 39.504V40H33.4151V34.32H37.1591V34.816H33.9751V36.864H36.7511V37.336H33.9751V39.504H37.2311ZM42.1061 39.504V40H38.2901V34.32H42.0341V34.816H38.8501V36.864H41.6261V37.336H38.8501V39.504H42.1061ZM44.8282 37.12C44.8282 36.7733 44.8869 36.4347 45.0042 36.104C45.1269 35.768 45.3029 35.464 45.5322 35.192C45.7615 34.9147 46.0442 34.696 46.3802 34.536C46.7162 34.3707 47.0975 34.288 47.5242 34.288C48.0309 34.288 48.4629 34.4053 48.8202 34.64C49.1829 34.8693 49.4495 35.1653 49.6202 35.528L49.1802 35.8C49.0575 35.5493 48.9029 35.352 48.7162 35.208C48.5295 35.0587 48.3295 34.952 48.1162 34.888C47.9082 34.824 47.7002 34.792 47.4922 34.792C47.1509 34.792 46.8495 34.8613 46.5882 35C46.3269 35.1333 46.1055 35.3147 45.9242 35.544C45.7482 35.768 45.6149 36.0213 45.5242 36.304C45.4335 36.5813 45.3882 36.864 45.3882 37.152C45.3882 37.4667 45.4415 37.768 45.5482 38.056C45.6549 38.344 45.8042 38.6 45.9962 38.824C46.1882 39.0427 46.4122 39.2187 46.6682 39.352C46.9295 39.48 47.2122 39.544 47.5162 39.544C47.7295 39.544 47.9482 39.5067 48.1722 39.432C48.3962 39.3573 48.6042 39.2427 48.7962 39.088C48.9935 38.9333 49.1509 38.7333 49.2682 38.488L49.7322 38.728C49.6149 39.0107 49.4335 39.2507 49.1882 39.448C48.9429 39.6453 48.6682 39.7947 48.3642 39.896C48.0655 39.9973 47.7722 40.048 47.4842 40.048C47.0949 40.048 46.7375 39.9653 46.4122 39.8C46.0869 39.6293 45.8042 39.4053 45.5642 39.128C45.3295 38.8453 45.1482 38.5307 45.0202 38.184C44.8922 37.832 44.8282 37.4773 44.8282 37.12ZM52.3704 34.32H52.8424L55.2024 40H54.6104L53.8744 38.224H51.3224L50.5944 40H49.9944L52.3704 34.32ZM53.7464 37.784L52.6024 34.976L51.4424 37.784H53.7464ZM59.2586 35.384C59.1786 35.2933 59.0852 35.2133 58.9786 35.144C58.8719 35.0693 58.7519 35.0053 58.6186 34.952C58.4852 34.8987 58.3412 34.856 58.1866 34.824C58.0372 34.792 57.8772 34.776 57.7066 34.776C57.2106 34.776 56.8452 34.872 56.6106 35.064C56.3812 35.2507 56.2666 35.5067 56.2666 35.832C56.2666 36.056 56.3199 36.232 56.4266 36.36C56.5386 36.488 56.7119 36.592 56.9466 36.672C57.1812 36.752 57.4799 36.8347 57.8426 36.92C58.2479 37.0053 58.5972 37.1067 58.8906 37.224C59.1839 37.3413 59.4106 37.5013 59.5706 37.704C59.7306 37.9013 59.8106 38.1707 59.8106 38.512C59.8106 38.7733 59.7599 39 59.6586 39.192C59.5572 39.384 59.4159 39.544 59.2346 39.672C59.0532 39.8 58.8372 39.896 58.5866 39.96C58.3359 40.0187 58.0612 40.048 57.7626 40.048C57.4692 40.048 57.1866 40.0187 56.9146 39.96C56.6479 39.896 56.3946 39.8053 56.1546 39.688C55.9146 39.5653 55.6906 39.4107 55.4826 39.224L55.7626 38.768C55.8639 38.8747 55.9839 38.976 56.1226 39.072C56.2666 39.1627 56.4239 39.2453 56.5946 39.32C56.7706 39.3947 56.9572 39.4533 57.1546 39.496C57.3572 39.5333 57.5652 39.552 57.7786 39.552C58.2319 39.552 58.5839 39.4693 58.8346 39.304C59.0906 39.1387 59.2186 38.8933 59.2186 38.568C59.2186 38.3333 59.1546 38.1467 59.0266 38.008C58.8986 37.864 58.7066 37.7467 58.4506 37.656C58.1946 37.5653 57.8799 37.4773 57.5066 37.392C57.1119 37.3013 56.7786 37.2 56.5066 37.088C56.2346 36.976 56.0292 36.8293 55.8906 36.648C55.7572 36.4613 55.6906 36.216 55.6906 35.912C55.6906 35.56 55.7759 35.264 55.9466 35.024C56.1226 34.7787 56.3626 34.5947 56.6666 34.472C56.9706 34.344 57.3199 34.28 57.7146 34.28C57.9652 34.28 58.1972 34.3067 58.4106 34.36C58.6292 34.408 58.8292 34.48 59.0106 34.576C59.1972 34.672 59.3706 34.792 59.5306 34.936L59.2586 35.384ZM62.4564 34.32H62.9284L65.2884 40H64.6964L63.9604 38.224H61.4084L60.6804 40H60.0804L62.4564 34.32ZM63.8324 37.784L62.6884 34.976L61.5284 37.784H63.8324Z" fill="#070605"/>
<line x1="0.5" y1="-2.18557e-08" x2="0.500002" y2="53" stroke="#070605"/>
<line x1="1" y1="0.5" x2="45" y2="0.5" stroke="#070605"/>
<line x1="1" y1="52.5" x2="45" y2="52.5" stroke="#070605"/>
<line x1="44.5" y1="1" x2="44.5" y2="8" stroke="#070605"/>
<line x1="44.5" y1="45" x2="44.5" y2="52" stroke="#070605"/>
</svg>
