<svg width="82" height="42" viewBox="0 0 82 42" fill="none" xmlns="http://www.w3.org/2000/svg">
<path fill-rule="evenodd" clip-rule="evenodd" d="M82 0H0V21H11.2912V8.25445H13.5352V21H23.9091C23.8673 20.9742 23.8258 20.9477 23.7844 20.9207C22.9034 20.3389 22.2177 19.5285 21.7274 18.4897C21.2453 17.4424 21.0043 16.2415 21.0043 14.8868C21.0043 13.5653 21.2245 12.3685 21.665 11.2963C22.1055 10.2159 22.7662 9.38892 23.6472 8.81545C24.5282 8.24198 25.5131 7.95525 26.6019 7.95525C27.3997 7.95525 28.1103 8.12562 28.7337 8.46638C29.357 8.79883 29.864 9.23516 30.2546 9.77539V3.21788H32.4862V21H43.0951C42.6276 20.7361 42.2043 20.4063 41.8253 20.0106C40.6949 18.8138 40.1298 17.1391 40.1298 14.9865C40.1298 12.7591 40.7032 11.0304 41.8502 9.80032C42.9971 8.57027 44.4848 7.95525 46.3133 7.95525C48.0836 7.95525 49.5297 8.55781 50.6517 9.76292C51.7737 10.968 52.3347 12.6635 52.3347 14.8494C52.3347 14.9823 52.3306 15.1818 52.3223 15.4478H42.4486C42.5317 16.9022 42.9431 18.0159 43.6828 18.7889C44.4225 19.5618 45.345 19.9483 46.4504 19.9483C47.2732 19.9483 47.9755 19.7322 48.5573 19.3C49.1391 18.8678 49.6004 18.178 49.9411 17.2305L52.2599 17.5172C51.8942 18.872 51.2169 19.9233 50.2278 20.6713C50.0705 20.7904 49.9061 20.8999 49.7349 21H62.1582C61.6908 20.7361 61.2675 20.4063 60.8884 20.0106C59.7581 18.8138 59.1929 17.1391 59.1929 14.9865C59.1929 12.7591 59.7664 11.0304 60.9134 9.80032C62.0603 8.57027 63.548 7.95525 65.3764 7.95525C67.1467 7.95525 68.5929 8.55781 69.7149 9.76292C70.8369 10.968 71.3979 12.6635 71.3979 14.8494C71.3979 14.9823 71.3937 15.1818 71.3854 15.4478H61.5118C61.5949 16.9022 62.0063 18.0159 62.746 18.7889C63.4857 19.5618 64.4082 19.9483 65.5136 19.9483C66.3364 19.9483 67.0387 19.7322 67.6205 19.3C68.2022 18.8678 68.6635 18.178 69.0043 17.2305L71.3231 17.5172C70.9574 18.872 70.28 19.9233 69.291 20.6713C69.1336 20.7904 68.9693 20.8999 68.798 21H82V0ZM30.4042 21V19.8236C30.0975 20.3034 29.7381 20.6955 29.326 21H30.4042ZM11.2912 3.21788V5.7985H13.5352V3.21788H11.2912ZM24.3828 18.6891C23.668 17.8497 23.3106 16.5822 23.3106 14.8868C23.3106 13.1331 23.6431 11.849 24.308 11.0345C24.9812 10.22 25.8164 9.81279 26.8138 9.81279C27.8361 9.81279 28.6963 10.2367 29.3944 11.0844C30.0925 11.9321 30.4416 13.2619 30.4416 15.0738C30.4416 16.7194 30.0967 17.9453 29.4069 18.7515C28.7254 19.5493 27.8942 19.9483 26.9135 19.9483C25.9411 19.9483 25.0975 19.5285 24.3828 18.6891ZM49.966 13.6027H42.5733C42.6481 12.4474 43.0345 11.5249 43.7327 10.8351C44.4391 10.1452 45.3076 9.80032 46.3382 9.80032C47.4769 9.80032 48.4035 10.2325 49.1183 11.0969C49.5837 11.6537 49.8663 12.489 49.966 13.6027ZM69.0292 13.6027H61.6364C61.7112 12.4474 62.0977 11.5249 62.7958 10.8351C63.5023 10.1452 64.3708 9.80032 65.4014 9.80032C66.54 9.80032 67.4667 10.2325 68.1815 11.0969C68.6469 11.6537 68.9295 12.489 69.0292 13.6027Z" fill="#070605"/>
<path d="M15.7106 38.2553C14.3404 38.2553 13.1745 37.966 12.2128 37.3872C11.2596 36.8085 10.5319 36.0213 10.0298 35.0255C9.52766 34.0298 9.2766 32.9064 9.2766 31.6553C9.2766 30.4043 9.51489 29.2809 9.99149 28.2851C10.4766 27.2809 11.1787 26.4894 12.0979 25.9106C13.0255 25.3319 14.1532 25.0426 15.4809 25.0426C15.9745 25.0426 16.4596 25.0851 16.9362 25.1702C17.4213 25.2553 17.8766 25.3702 18.3021 25.5149C18.7277 25.6511 19.1064 25.8128 19.4383 26L19.2468 27.9404C18.7702 27.6681 18.3191 27.4596 17.8936 27.3149C17.4766 27.1617 17.0851 27.0596 16.7191 27.0085C16.3617 26.9489 16.0298 26.9191 15.7234 26.9191C14.4298 26.9191 13.3915 27.3447 12.6085 28.1957C11.8255 29.0383 11.434 30.1787 11.434 31.617C11.434 32.5191 11.6043 33.3362 11.9447 34.0681C12.2936 34.7915 12.8128 35.366 13.5021 35.7915C14.2 36.2085 15.0638 36.417 16.0936 36.417C16.4596 36.417 16.8213 36.383 17.1787 36.3149C17.5447 36.2468 17.9064 36.1489 18.2638 36.0213C18.6213 35.8851 18.966 35.7106 19.2979 35.4979L19.4766 37.4255C19.1957 37.5787 18.8681 37.7191 18.4936 37.8468C18.1191 37.966 17.6979 38.0638 17.2298 38.1404C16.7702 38.217 16.2638 38.2553 15.7106 38.2553ZM28.0717 38.2553C27.3142 38.2553 26.6504 38.1106 26.0802 37.8213C25.51 37.5234 25.0632 37.1021 24.7398 36.5574C24.4249 36.0128 24.2674 35.3574 24.2674 34.5915C24.2674 33.9021 24.3908 33.3234 24.6376 32.8553C24.8844 32.3787 25.2078 31.9915 25.6078 31.6936C26.0078 31.3957 26.4504 31.166 26.9355 31.0043C27.4206 30.834 27.9057 30.7064 28.3908 30.6213L32.361 29.9319C32.3951 29.0723 32.2802 28.4255 32.0164 27.9915C31.761 27.5489 31.3993 27.2511 30.9312 27.0979C30.4632 26.9447 29.944 26.8681 29.3738 26.8681C29.0844 26.8681 28.7738 26.8894 28.4419 26.9319C28.11 26.9745 27.7568 27.0426 27.3823 27.1362C27.0164 27.2213 26.6291 27.3319 26.2206 27.4681C25.8121 27.6043 25.3823 27.7702 24.9312 27.966L24.8164 26.0383C25.1227 25.9106 25.4674 25.7872 25.8504 25.6681C26.2419 25.5489 26.6547 25.4426 27.0887 25.3489C27.5312 25.2468 27.9823 25.1702 28.4419 25.1191C28.9015 25.0681 29.3653 25.0426 29.8334 25.0426C30.7781 25.0426 31.5908 25.1915 32.2717 25.4894C32.961 25.7872 33.4887 26.2553 33.8547 26.8936C34.2206 27.5319 34.4036 28.366 34.4036 29.3957C34.4036 29.7872 34.4036 30.2851 34.4036 30.8894C34.4036 31.4936 34.4036 32.0681 34.4036 32.6128V34.2596C34.4036 34.8383 34.4036 35.4298 34.4036 36.034C34.4036 36.6298 34.4036 37.2851 34.4036 38H32.4887L32.3738 36.2H32.1695C31.9057 36.5404 31.5738 36.8681 31.1738 37.183C30.7738 37.4979 30.31 37.7574 29.7823 37.9617C29.2632 38.1574 28.693 38.2553 28.0717 38.2553ZM28.6844 36.5064C29.1355 36.5064 29.5866 36.4128 30.0376 36.2255C30.4887 36.0383 30.91 35.7617 31.3015 35.3957C31.7015 35.0213 32.0376 34.5532 32.31 33.9915L32.3227 31.2596C32.1866 31.3362 32.0036 31.4128 31.7738 31.4894C31.5525 31.566 31.2164 31.6553 30.7653 31.7574C30.3227 31.8511 29.7057 31.9702 28.9142 32.1149C28.4291 32.2 27.9993 32.3404 27.6249 32.5362C27.2504 32.7234 26.9525 32.983 26.7312 33.3149C26.5185 33.6383 26.4121 34.034 26.4121 34.5021C26.4121 35.234 26.6291 35.7532 27.0632 36.0596C27.5057 36.3574 28.0461 36.5064 28.6844 36.5064ZM44.3467 38.2809C43.819 38.2809 43.2871 38.2383 42.7509 38.1532C42.2233 38.0681 41.7254 37.9574 41.2573 37.8213C40.7892 37.6766 40.3807 37.5149 40.0318 37.3362L40.1977 35.3574C40.5892 35.5787 41.0062 35.7745 41.4488 35.9447C41.8999 36.1064 42.3637 36.234 42.8403 36.3277C43.3254 36.4128 43.8105 36.4553 44.2956 36.4553C44.7637 36.4553 45.1935 36.4043 45.585 36.3021C45.985 36.1915 46.2999 35.9957 46.5297 35.7149C46.768 35.4255 46.8871 35.0085 46.8871 34.4638C46.8871 34.1064 46.785 33.8128 46.5807 33.583C46.3765 33.3532 46.0318 33.1447 45.5467 32.9574C45.0701 32.7702 44.4233 32.5617 43.6062 32.3319C42.9339 32.1447 42.3339 31.9149 41.8062 31.6426C41.2786 31.3702 40.8616 31.0043 40.5552 30.5447C40.2573 30.0851 40.1084 29.4851 40.1084 28.7447C40.1084 27.5957 40.4828 26.6936 41.2318 26.0383C41.9892 25.3745 43.0062 25.0426 44.2828 25.0426C44.8105 25.0426 45.3211 25.0894 45.8148 25.183C46.3084 25.2681 46.7637 25.383 47.1807 25.5277C47.5977 25.6723 47.9594 25.8255 48.2658 25.9872L48.0871 27.966C47.6786 27.7106 47.2573 27.5021 46.8233 27.3404C46.3892 27.1702 45.9722 27.0511 45.5722 26.983C45.1722 26.9064 44.819 26.8681 44.5126 26.8681C44.1637 26.8681 43.8148 26.9191 43.4658 27.0213C43.1254 27.1149 42.8403 27.2936 42.6105 27.5574C42.3807 27.8128 42.2658 28.183 42.2658 28.6681C42.2658 29.017 42.3467 29.3106 42.5084 29.5489C42.6701 29.7872 42.9509 30 43.3509 30.1872C43.7509 30.3745 44.3041 30.5702 45.0105 30.7745C45.8531 31.0213 46.5722 31.2809 47.168 31.5532C47.7722 31.817 48.236 32.166 48.5594 32.6C48.8828 33.034 49.0445 33.634 49.0445 34.4C49.0445 35.1404 48.8828 35.8043 48.5594 36.3915C48.236 36.9702 47.7297 37.4298 47.0403 37.7702C46.3509 38.1106 45.4531 38.2809 44.3467 38.2809ZM57.6508 38.2553C56.8934 38.2553 56.2295 38.1106 55.6593 37.8213C55.0891 37.5234 54.6423 37.1021 54.3189 36.5574C54.004 36.0128 53.8465 35.3574 53.8465 34.5915C53.8465 33.9021 53.9699 33.3234 54.2168 32.8553C54.4636 32.3787 54.787 31.9915 55.187 31.6936C55.587 31.3957 56.0295 31.166 56.5146 31.0043C56.9997 30.834 57.4848 30.7064 57.9699 30.6213L61.9402 29.9319C61.9742 29.0723 61.8593 28.4255 61.5955 27.9915C61.3402 27.5489 60.9785 27.2511 60.5104 27.0979C60.0423 26.9447 59.5231 26.8681 58.9529 26.8681C58.6636 26.8681 58.3529 26.8894 58.021 26.9319C57.6891 26.9745 57.3359 27.0426 56.9614 27.1362C56.5955 27.2213 56.2082 27.3319 55.7997 27.4681C55.3912 27.6043 54.9614 27.7702 54.5104 27.966L54.3955 26.0383C54.7019 25.9106 55.0465 25.7872 55.4295 25.6681C55.821 25.5489 56.2338 25.4426 56.6678 25.3489C57.1104 25.2468 57.5614 25.1702 58.021 25.1191C58.4806 25.0681 58.9444 25.0426 59.4125 25.0426C60.3572 25.0426 61.1699 25.1915 61.8508 25.4894C62.5402 25.7872 63.0678 26.2553 63.4338 26.8936C63.7997 27.5319 63.9827 28.366 63.9827 29.3957C63.9827 29.7872 63.9827 30.2851 63.9827 30.8894C63.9827 31.4936 63.9827 32.0681 63.9827 32.6128V34.2596C63.9827 34.8383 63.9827 35.4298 63.9827 36.034C63.9827 36.6298 63.9827 37.2851 63.9827 38H62.0678L61.9529 36.2H61.7487C61.4848 36.5404 61.1529 36.8681 60.7529 37.183C60.3529 37.4979 59.8891 37.7574 59.3614 37.9617C58.8423 38.1574 58.2721 38.2553 57.6508 38.2553ZM58.2636 36.5064C58.7146 36.5064 59.1657 36.4128 59.6168 36.2255C60.0678 36.0383 60.4891 35.7617 60.8806 35.3957C61.2806 35.0213 61.6168 34.5532 61.8891 33.9915L61.9019 31.2596C61.7657 31.3362 61.5827 31.4128 61.3529 31.4894C61.1316 31.566 60.7955 31.6553 60.3444 31.7574C59.9019 31.8511 59.2848 31.9702 58.4934 32.1149C58.0082 32.2 57.5785 32.3404 57.204 32.5362C56.8295 32.7234 56.5316 32.983 56.3104 33.3149C56.0976 33.6383 55.9912 34.034 55.9912 34.5021C55.9912 35.234 56.2082 35.7532 56.6423 36.0596C57.0848 36.3574 57.6253 36.5064 58.2636 36.5064Z" fill="#070605"/>
</svg>
