<svg width="36" height="29" viewBox="0 0 36 29" fill="none" xmlns="http://www.w3.org/2000/svg">
<path d="M21.8597 7.14288H29.5739C30.9379 7.14288 32.246 7.68472 33.2105 8.64919C34.175 9.61366 34.7168 10.9218 34.7168 12.2857V22.5715H30.8597" stroke="#9A8873" stroke-width="1.6" stroke-linecap="round" stroke-linejoin="round"/>
<path d="M3.85938 22.5714H1.28795V4.57143C1.28795 3.88944 1.55886 3.23539 2.0411 2.75315C2.52334 2.27092 3.17739 2 3.85938 2H19.2879C19.9699 2 20.624 2.27092 21.1062 2.75315C21.5885 3.23539 21.8594 3.88944 21.8594 4.57143V19.1771" stroke="#9A8873" stroke-width="1.6" stroke-linecap="round" stroke-linejoin="round"/>
<path d="M20.5742 22.5714H14.1456" stroke="#9A8873" stroke-width="1.6" stroke-linecap="round" stroke-linejoin="round"/>
<path d="M25.7165 27.7143C22.8762 27.7143 20.5737 25.4118 20.5737 22.5714C20.5737 19.7311 22.8762 17.4286 25.7165 17.4286C28.5568 17.4286 30.8594 19.7311 30.8594 22.5714C30.8594 25.4118 28.5568 27.7143 25.7165 27.7143Z" stroke="#9A8873" stroke-width="1.6" stroke-linecap="round" stroke-linejoin="round"/>
<path d="M9.00363 27.7143C6.16331 27.7143 3.86077 25.4118 3.86077 22.5714C3.86077 19.7311 6.16331 17.4286 9.00363 17.4286C11.8439 17.4286 14.1465 19.7311 14.1465 22.5714C14.1465 25.4118 11.8439 27.7143 9.00363 27.7143Z" stroke="#9A8873" stroke-width="1.6" stroke-linecap="round" stroke-linejoin="round"/>
</svg>
