<svg width="25" height="25" viewBox="0 0 25 25" fill="none" xmlns="http://www.w3.org/2000/svg">
<path d="M21.9285 10.7142H3.07138C2.80356 10.7088 2.53794 10.7637 2.29422 10.8749C2.05049 10.986 1.83489 11.1506 1.6634 11.3564C1.49191 11.5622 1.36891 11.8039 1.30353 12.0637C1.23814 12.3235 1.23203 12.5946 1.28567 12.8571L3.24995 22.6785C3.33344 23.0879 3.55785 23.4551 3.88413 23.7161C4.21042 23.9772 4.6179 24.1155 5.03567 24.1071H19.9642C20.382 24.1155 20.7895 23.9772 21.1158 23.7161C21.4421 23.4551 21.6665 23.0879 21.75 22.6785L23.7142 12.8571C23.7679 12.5946 23.7618 12.3235 23.6964 12.0637C23.631 11.8039 23.508 11.5622 23.3365 11.3564C23.165 11.1506 22.9494 10.986 22.7057 10.8749C22.462 10.7637 22.1963 10.7088 21.9285 10.7142Z" stroke="white" stroke-width="1.5" stroke-linecap="round" stroke-linejoin="round"/>
<path d="M16.0715 4.46436L19.643 10.7144" stroke="white" stroke-width="1.5" stroke-linecap="round" stroke-linejoin="round"/>
<path d="M5.35718 10.7144L8.92861 4.46436" stroke="white" stroke-width="1.5" stroke-linecap="round" stroke-linejoin="round"/>
</svg>
